<svg xmlns="http://www.w3.org/2000/svg" width="16.244" height="9.838" viewBox="0 0 16.244 9.838">
    <defs>
        <style>
            .cls-1{fill:#227dbf}
        </style>
    </defs>
    <g id="Checkmark_Outline" data-name="Checkmark Outline" transform="translate(-6.409 -9.546)">
        <path id="Path_1900" d="M9.934 15.794a1.137 1.137 0 0 1-.739-.261L4.273 11.31a.712.712 0 0 1 .046-1.156 1.192 1.192 0 0 1 1.433.037l4.172 3.586 8.516-7.515a1.185 1.185 0 0 1 1.424-.125.715.715 0 0 1 .156 1.148.912.912 0 0 1-.08.072l-9.256 8.168a1.132 1.132 0 0 1-.739.27z" class="cls-1" data-name="Path 1900" transform="translate(2.41 3.59)"/>
    </g>
</svg>
